<mxfile host="Electron" modified="2023-04-28T17:41:34.889Z" agent="Mozilla/5.0 (Windows NT 10.0; Win64; x64) AppleWebKit/537.36 (KHTML, like Gecko) draw.io/21.2.1 Chrome/112.0.5615.87 Electron/24.1.2 Safari/537.36" etag="rmFAUKi2KqXVp7vjAyOd" version="21.2.1" type="device">
  <diagram name="Page-1" id="76_zgrf11TB1RxHznESh">
    <mxGraphModel dx="2074" dy="1196" grid="1" gridSize="10" guides="1" tooltips="1" connect="1" arrows="1" fold="1" page="1" pageScale="1" pageWidth="1000" pageHeight="700" math="1" shadow="0">
      <root>
        <mxCell id="0" />
        <mxCell id="1" parent="0" />
        <mxCell id="-q-yL08rwZdAUEPEGKe_-25" value="" style="rounded=1;whiteSpace=wrap;html=1;fillColor=#d5e8d4;strokeColor=#82b366;shadow=1;" parent="1" vertex="1">
          <mxGeometry x="770" y="180" width="100" height="370" as="geometry" />
        </mxCell>
        <mxCell id="-q-yL08rwZdAUEPEGKe_-1" value="" style="rounded=1;whiteSpace=wrap;html=1;fillColor=#dae8fc;strokeColor=#6c8ebf;shadow=1;" parent="1" vertex="1">
          <mxGeometry x="170" y="180" width="100" height="370" as="geometry" />
        </mxCell>
        <mxCell id="-q-yL08rwZdAUEPEGKe_-12" value="" style="rounded=1;whiteSpace=wrap;html=1;fillColor=#f8cecc;strokeColor=#b85450;shadow=1;glass=0;" parent="1" vertex="1">
          <mxGeometry x="470" y="90" width="100" height="550" as="geometry" />
        </mxCell>
        <mxCell id="-q-yL08rwZdAUEPEGKe_-30" style="rounded=0;orthogonalLoop=1;jettySize=auto;html=1;" parent="1" source="-q-yL08rwZdAUEPEGKe_-6" target="-q-yL08rwZdAUEPEGKe_-14" edge="1">
          <mxGeometry relative="1" as="geometry" />
        </mxCell>
        <mxCell id="-q-yL08rwZdAUEPEGKe_-31" style="edgeStyle=orthogonalEdgeStyle;rounded=0;orthogonalLoop=1;jettySize=auto;html=1;" parent="1" source="-q-yL08rwZdAUEPEGKe_-6" target="-q-yL08rwZdAUEPEGKe_-13" edge="1">
          <mxGeometry relative="1" as="geometry" />
        </mxCell>
        <mxCell id="-q-yL08rwZdAUEPEGKe_-32" style="rounded=0;orthogonalLoop=1;jettySize=auto;html=1;" parent="1" source="-q-yL08rwZdAUEPEGKe_-6" target="-q-yL08rwZdAUEPEGKe_-15" edge="1">
          <mxGeometry relative="1" as="geometry" />
        </mxCell>
        <mxCell id="-q-yL08rwZdAUEPEGKe_-6" value="" style="ellipse;whiteSpace=wrap;html=1;aspect=fixed;" parent="1" vertex="1">
          <mxGeometry x="180" y="190" width="80" height="80" as="geometry" />
        </mxCell>
        <mxCell id="-q-yL08rwZdAUEPEGKe_-42" style="rounded=0;orthogonalLoop=1;jettySize=auto;html=1;" parent="1" source="-q-yL08rwZdAUEPEGKe_-7" target="-q-yL08rwZdAUEPEGKe_-22" edge="1">
          <mxGeometry relative="1" as="geometry" />
        </mxCell>
        <mxCell id="-q-yL08rwZdAUEPEGKe_-7" value="" style="ellipse;whiteSpace=wrap;html=1;aspect=fixed;" parent="1" vertex="1">
          <mxGeometry x="180" y="370" width="80" height="80" as="geometry" />
        </mxCell>
        <mxCell id="-q-yL08rwZdAUEPEGKe_-36" style="rounded=0;orthogonalLoop=1;jettySize=auto;html=1;" parent="1" source="-q-yL08rwZdAUEPEGKe_-8" target="-q-yL08rwZdAUEPEGKe_-22" edge="1">
          <mxGeometry relative="1" as="geometry" />
        </mxCell>
        <mxCell id="-q-yL08rwZdAUEPEGKe_-8" value="" style="ellipse;whiteSpace=wrap;html=1;aspect=fixed;" parent="1" vertex="1">
          <mxGeometry x="180" y="280" width="80" height="80" as="geometry" />
        </mxCell>
        <mxCell id="-q-yL08rwZdAUEPEGKe_-48" style="rounded=0;orthogonalLoop=1;jettySize=auto;html=1;" parent="1" source="-q-yL08rwZdAUEPEGKe_-9" target="-q-yL08rwZdAUEPEGKe_-22" edge="1">
          <mxGeometry relative="1" as="geometry" />
        </mxCell>
        <mxCell id="-q-yL08rwZdAUEPEGKe_-9" value="" style="ellipse;whiteSpace=wrap;html=1;aspect=fixed;" parent="1" vertex="1">
          <mxGeometry x="180" y="460" width="80" height="80" as="geometry" />
        </mxCell>
        <mxCell id="-q-yL08rwZdAUEPEGKe_-61" style="rounded=0;orthogonalLoop=1;jettySize=auto;html=1;" parent="1" source="-q-yL08rwZdAUEPEGKe_-13" target="-q-yL08rwZdAUEPEGKe_-26" edge="1">
          <mxGeometry relative="1" as="geometry" />
        </mxCell>
        <mxCell id="-q-yL08rwZdAUEPEGKe_-13" value="" style="ellipse;whiteSpace=wrap;html=1;aspect=fixed;" parent="1" vertex="1">
          <mxGeometry x="480" y="190" width="80" height="80" as="geometry" />
        </mxCell>
        <mxCell id="-q-yL08rwZdAUEPEGKe_-14" value="" style="ellipse;whiteSpace=wrap;html=1;aspect=fixed;" parent="1" vertex="1">
          <mxGeometry x="480" y="370" width="80" height="80" as="geometry" />
        </mxCell>
        <mxCell id="-q-yL08rwZdAUEPEGKe_-15" value="" style="ellipse;whiteSpace=wrap;html=1;aspect=fixed;" parent="1" vertex="1">
          <mxGeometry x="480" y="280" width="80" height="80" as="geometry" />
        </mxCell>
        <mxCell id="-q-yL08rwZdAUEPEGKe_-16" value="" style="ellipse;whiteSpace=wrap;html=1;aspect=fixed;" parent="1" vertex="1">
          <mxGeometry x="480" y="460" width="80" height="80" as="geometry" />
        </mxCell>
        <mxCell id="-q-yL08rwZdAUEPEGKe_-57" style="rounded=0;orthogonalLoop=1;jettySize=auto;html=1;" parent="1" source="-q-yL08rwZdAUEPEGKe_-22" target="-q-yL08rwZdAUEPEGKe_-26" edge="1">
          <mxGeometry relative="1" as="geometry" />
        </mxCell>
        <mxCell id="-q-yL08rwZdAUEPEGKe_-22" value="" style="ellipse;whiteSpace=wrap;html=1;aspect=fixed;" parent="1" vertex="1">
          <mxGeometry x="480" y="100" width="80" height="80" as="geometry" />
        </mxCell>
        <mxCell id="-q-yL08rwZdAUEPEGKe_-23" value="" style="ellipse;whiteSpace=wrap;html=1;aspect=fixed;" parent="1" vertex="1">
          <mxGeometry x="480" y="550" width="80" height="80" as="geometry" />
        </mxCell>
        <mxCell id="-q-yL08rwZdAUEPEGKe_-26" value="" style="ellipse;whiteSpace=wrap;html=1;aspect=fixed;" parent="1" vertex="1">
          <mxGeometry x="780" y="190" width="80" height="80" as="geometry" />
        </mxCell>
        <mxCell id="-q-yL08rwZdAUEPEGKe_-27" value="" style="ellipse;whiteSpace=wrap;html=1;aspect=fixed;" parent="1" vertex="1">
          <mxGeometry x="780" y="370" width="80" height="80" as="geometry" />
        </mxCell>
        <mxCell id="-q-yL08rwZdAUEPEGKe_-28" value="" style="ellipse;whiteSpace=wrap;html=1;aspect=fixed;" parent="1" vertex="1">
          <mxGeometry x="780" y="280" width="80" height="80" as="geometry" />
        </mxCell>
        <mxCell id="-q-yL08rwZdAUEPEGKe_-29" value="" style="ellipse;whiteSpace=wrap;html=1;aspect=fixed;" parent="1" vertex="1">
          <mxGeometry x="780" y="460" width="80" height="80" as="geometry" />
        </mxCell>
        <mxCell id="-q-yL08rwZdAUEPEGKe_-33" style="rounded=0;orthogonalLoop=1;jettySize=auto;html=1;" parent="1" source="-q-yL08rwZdAUEPEGKe_-6" target="-q-yL08rwZdAUEPEGKe_-22" edge="1">
          <mxGeometry relative="1" as="geometry" />
        </mxCell>
        <mxCell id="-q-yL08rwZdAUEPEGKe_-34" style="rounded=0;orthogonalLoop=1;jettySize=auto;html=1;" parent="1" source="-q-yL08rwZdAUEPEGKe_-6" target="-q-yL08rwZdAUEPEGKe_-16" edge="1">
          <mxGeometry relative="1" as="geometry" />
        </mxCell>
        <mxCell id="-q-yL08rwZdAUEPEGKe_-35" style="rounded=0;orthogonalLoop=1;jettySize=auto;html=1;" parent="1" source="-q-yL08rwZdAUEPEGKe_-6" target="-q-yL08rwZdAUEPEGKe_-23" edge="1">
          <mxGeometry relative="1" as="geometry" />
        </mxCell>
        <mxCell id="-q-yL08rwZdAUEPEGKe_-37" style="rounded=0;orthogonalLoop=1;jettySize=auto;html=1;" parent="1" source="-q-yL08rwZdAUEPEGKe_-8" target="-q-yL08rwZdAUEPEGKe_-13" edge="1">
          <mxGeometry relative="1" as="geometry" />
        </mxCell>
        <mxCell id="-q-yL08rwZdAUEPEGKe_-38" style="rounded=0;orthogonalLoop=1;jettySize=auto;html=1;" parent="1" source="-q-yL08rwZdAUEPEGKe_-8" target="-q-yL08rwZdAUEPEGKe_-15" edge="1">
          <mxGeometry relative="1" as="geometry" />
        </mxCell>
        <mxCell id="-q-yL08rwZdAUEPEGKe_-39" style="rounded=0;orthogonalLoop=1;jettySize=auto;html=1;" parent="1" source="-q-yL08rwZdAUEPEGKe_-8" target="-q-yL08rwZdAUEPEGKe_-14" edge="1">
          <mxGeometry relative="1" as="geometry" />
        </mxCell>
        <mxCell id="-q-yL08rwZdAUEPEGKe_-40" style="rounded=0;orthogonalLoop=1;jettySize=auto;html=1;" parent="1" source="-q-yL08rwZdAUEPEGKe_-8" target="-q-yL08rwZdAUEPEGKe_-16" edge="1">
          <mxGeometry relative="1" as="geometry" />
        </mxCell>
        <mxCell id="-q-yL08rwZdAUEPEGKe_-41" style="rounded=0;orthogonalLoop=1;jettySize=auto;html=1;" parent="1" source="-q-yL08rwZdAUEPEGKe_-8" target="-q-yL08rwZdAUEPEGKe_-23" edge="1">
          <mxGeometry relative="1" as="geometry" />
        </mxCell>
        <mxCell id="-q-yL08rwZdAUEPEGKe_-43" style="rounded=0;orthogonalLoop=1;jettySize=auto;html=1;" parent="1" source="-q-yL08rwZdAUEPEGKe_-7" target="-q-yL08rwZdAUEPEGKe_-13" edge="1">
          <mxGeometry relative="1" as="geometry" />
        </mxCell>
        <mxCell id="-q-yL08rwZdAUEPEGKe_-44" style="rounded=0;orthogonalLoop=1;jettySize=auto;html=1;" parent="1" source="-q-yL08rwZdAUEPEGKe_-7" target="-q-yL08rwZdAUEPEGKe_-15" edge="1">
          <mxGeometry relative="1" as="geometry" />
        </mxCell>
        <mxCell id="-q-yL08rwZdAUEPEGKe_-45" style="rounded=0;orthogonalLoop=1;jettySize=auto;html=1;" parent="1" source="-q-yL08rwZdAUEPEGKe_-7" target="-q-yL08rwZdAUEPEGKe_-14" edge="1">
          <mxGeometry relative="1" as="geometry" />
        </mxCell>
        <mxCell id="-q-yL08rwZdAUEPEGKe_-46" style="rounded=0;orthogonalLoop=1;jettySize=auto;html=1;" parent="1" source="-q-yL08rwZdAUEPEGKe_-7" target="-q-yL08rwZdAUEPEGKe_-16" edge="1">
          <mxGeometry relative="1" as="geometry" />
        </mxCell>
        <mxCell id="-q-yL08rwZdAUEPEGKe_-47" style="rounded=0;orthogonalLoop=1;jettySize=auto;html=1;" parent="1" source="-q-yL08rwZdAUEPEGKe_-7" target="-q-yL08rwZdAUEPEGKe_-23" edge="1">
          <mxGeometry relative="1" as="geometry" />
        </mxCell>
        <mxCell id="-q-yL08rwZdAUEPEGKe_-49" style="rounded=0;orthogonalLoop=1;jettySize=auto;html=1;" parent="1" source="-q-yL08rwZdAUEPEGKe_-9" target="-q-yL08rwZdAUEPEGKe_-13" edge="1">
          <mxGeometry relative="1" as="geometry" />
        </mxCell>
        <mxCell id="-q-yL08rwZdAUEPEGKe_-50" style="rounded=0;orthogonalLoop=1;jettySize=auto;html=1;" parent="1" source="-q-yL08rwZdAUEPEGKe_-9" target="-q-yL08rwZdAUEPEGKe_-15" edge="1">
          <mxGeometry relative="1" as="geometry" />
        </mxCell>
        <mxCell id="-q-yL08rwZdAUEPEGKe_-51" style="rounded=0;orthogonalLoop=1;jettySize=auto;html=1;" parent="1" source="-q-yL08rwZdAUEPEGKe_-9" target="-q-yL08rwZdAUEPEGKe_-14" edge="1">
          <mxGeometry relative="1" as="geometry" />
        </mxCell>
        <mxCell id="-q-yL08rwZdAUEPEGKe_-52" style="rounded=0;orthogonalLoop=1;jettySize=auto;html=1;" parent="1" source="-q-yL08rwZdAUEPEGKe_-9" target="-q-yL08rwZdAUEPEGKe_-16" edge="1">
          <mxGeometry relative="1" as="geometry" />
        </mxCell>
        <mxCell id="-q-yL08rwZdAUEPEGKe_-53" style="rounded=0;orthogonalLoop=1;jettySize=auto;html=1;" parent="1" source="-q-yL08rwZdAUEPEGKe_-9" target="-q-yL08rwZdAUEPEGKe_-23" edge="1">
          <mxGeometry relative="1" as="geometry" />
        </mxCell>
        <mxCell id="-q-yL08rwZdAUEPEGKe_-55" value="$$W_{hidden} \in \mathbf{R}^{4 \times 6}$$" style="text;html=1;align=center;verticalAlign=middle;resizable=0;points=[];autosize=1;strokeColor=none;fillColor=none;" parent="1" vertex="1">
          <mxGeometry x="395" y="20" width="250" height="30" as="geometry" />
        </mxCell>
        <mxCell id="-q-yL08rwZdAUEPEGKe_-56" value="$$W_{out} \in \mathbf{R}^{6 \times 4}$$" style="text;html=1;align=center;verticalAlign=middle;resizable=0;points=[];autosize=1;strokeColor=none;fillColor=none;" parent="1" vertex="1">
          <mxGeometry x="705" y="110" width="230" height="30" as="geometry" />
        </mxCell>
        <mxCell id="-q-yL08rwZdAUEPEGKe_-58" style="rounded=0;orthogonalLoop=1;jettySize=auto;html=1;" parent="1" source="-q-yL08rwZdAUEPEGKe_-22" target="-q-yL08rwZdAUEPEGKe_-28" edge="1">
          <mxGeometry relative="1" as="geometry" />
        </mxCell>
        <mxCell id="-q-yL08rwZdAUEPEGKe_-59" style="rounded=0;orthogonalLoop=1;jettySize=auto;html=1;" parent="1" source="-q-yL08rwZdAUEPEGKe_-22" target="-q-yL08rwZdAUEPEGKe_-27" edge="1">
          <mxGeometry relative="1" as="geometry" />
        </mxCell>
        <mxCell id="-q-yL08rwZdAUEPEGKe_-60" style="rounded=0;orthogonalLoop=1;jettySize=auto;html=1;" parent="1" source="-q-yL08rwZdAUEPEGKe_-22" target="-q-yL08rwZdAUEPEGKe_-29" edge="1">
          <mxGeometry relative="1" as="geometry" />
        </mxCell>
        <mxCell id="-q-yL08rwZdAUEPEGKe_-62" style="rounded=0;orthogonalLoop=1;jettySize=auto;html=1;" parent="1" source="-q-yL08rwZdAUEPEGKe_-13" target="-q-yL08rwZdAUEPEGKe_-28" edge="1">
          <mxGeometry relative="1" as="geometry" />
        </mxCell>
        <mxCell id="-q-yL08rwZdAUEPEGKe_-63" style="rounded=0;orthogonalLoop=1;jettySize=auto;html=1;" parent="1" source="-q-yL08rwZdAUEPEGKe_-13" target="-q-yL08rwZdAUEPEGKe_-27" edge="1">
          <mxGeometry relative="1" as="geometry" />
        </mxCell>
        <mxCell id="-q-yL08rwZdAUEPEGKe_-64" style="rounded=0;orthogonalLoop=1;jettySize=auto;html=1;" parent="1" source="-q-yL08rwZdAUEPEGKe_-13" target="-q-yL08rwZdAUEPEGKe_-29" edge="1">
          <mxGeometry relative="1" as="geometry" />
        </mxCell>
        <mxCell id="-q-yL08rwZdAUEPEGKe_-65" style="rounded=0;orthogonalLoop=1;jettySize=auto;html=1;" parent="1" source="-q-yL08rwZdAUEPEGKe_-15" target="-q-yL08rwZdAUEPEGKe_-29" edge="1">
          <mxGeometry relative="1" as="geometry" />
        </mxCell>
        <mxCell id="-q-yL08rwZdAUEPEGKe_-66" style="rounded=0;orthogonalLoop=1;jettySize=auto;html=1;" parent="1" source="-q-yL08rwZdAUEPEGKe_-14" target="-q-yL08rwZdAUEPEGKe_-29" edge="1">
          <mxGeometry relative="1" as="geometry" />
        </mxCell>
        <mxCell id="-q-yL08rwZdAUEPEGKe_-67" style="rounded=0;orthogonalLoop=1;jettySize=auto;html=1;" parent="1" source="-q-yL08rwZdAUEPEGKe_-16" target="-q-yL08rwZdAUEPEGKe_-29" edge="1">
          <mxGeometry relative="1" as="geometry" />
        </mxCell>
        <mxCell id="-q-yL08rwZdAUEPEGKe_-68" style="rounded=0;orthogonalLoop=1;jettySize=auto;html=1;" parent="1" source="-q-yL08rwZdAUEPEGKe_-23" target="-q-yL08rwZdAUEPEGKe_-29" edge="1">
          <mxGeometry relative="1" as="geometry" />
        </mxCell>
        <mxCell id="-q-yL08rwZdAUEPEGKe_-69" style="rounded=0;orthogonalLoop=1;jettySize=auto;html=1;" parent="1" source="-q-yL08rwZdAUEPEGKe_-23" target="-q-yL08rwZdAUEPEGKe_-27" edge="1">
          <mxGeometry relative="1" as="geometry" />
        </mxCell>
        <mxCell id="-q-yL08rwZdAUEPEGKe_-70" style="rounded=0;orthogonalLoop=1;jettySize=auto;html=1;" parent="1" source="-q-yL08rwZdAUEPEGKe_-23" target="-q-yL08rwZdAUEPEGKe_-28" edge="1">
          <mxGeometry relative="1" as="geometry" />
        </mxCell>
        <mxCell id="-q-yL08rwZdAUEPEGKe_-71" style="rounded=0;orthogonalLoop=1;jettySize=auto;html=1;" parent="1" source="-q-yL08rwZdAUEPEGKe_-23" target="-q-yL08rwZdAUEPEGKe_-26" edge="1">
          <mxGeometry relative="1" as="geometry" />
        </mxCell>
        <mxCell id="-q-yL08rwZdAUEPEGKe_-72" style="rounded=0;orthogonalLoop=1;jettySize=auto;html=1;" parent="1" source="-q-yL08rwZdAUEPEGKe_-16" target="-q-yL08rwZdAUEPEGKe_-26" edge="1">
          <mxGeometry relative="1" as="geometry" />
        </mxCell>
        <mxCell id="-q-yL08rwZdAUEPEGKe_-74" style="rounded=0;orthogonalLoop=1;jettySize=auto;html=1;" parent="1" source="-q-yL08rwZdAUEPEGKe_-14" target="-q-yL08rwZdAUEPEGKe_-26" edge="1">
          <mxGeometry relative="1" as="geometry" />
        </mxCell>
        <mxCell id="-q-yL08rwZdAUEPEGKe_-75" style="rounded=0;orthogonalLoop=1;jettySize=auto;html=1;" parent="1" source="-q-yL08rwZdAUEPEGKe_-15" target="-q-yL08rwZdAUEPEGKe_-26" edge="1">
          <mxGeometry relative="1" as="geometry" />
        </mxCell>
        <mxCell id="-q-yL08rwZdAUEPEGKe_-76" style="rounded=0;orthogonalLoop=1;jettySize=auto;html=1;" parent="1" source="-q-yL08rwZdAUEPEGKe_-15" target="-q-yL08rwZdAUEPEGKe_-28" edge="1">
          <mxGeometry relative="1" as="geometry" />
        </mxCell>
        <mxCell id="-q-yL08rwZdAUEPEGKe_-77" style="rounded=0;orthogonalLoop=1;jettySize=auto;html=1;" parent="1" source="-q-yL08rwZdAUEPEGKe_-15" target="-q-yL08rwZdAUEPEGKe_-27" edge="1">
          <mxGeometry relative="1" as="geometry" />
        </mxCell>
        <mxCell id="-q-yL08rwZdAUEPEGKe_-78" style="rounded=0;orthogonalLoop=1;jettySize=auto;html=1;" parent="1" source="-q-yL08rwZdAUEPEGKe_-14" target="-q-yL08rwZdAUEPEGKe_-27" edge="1">
          <mxGeometry relative="1" as="geometry" />
        </mxCell>
        <mxCell id="-q-yL08rwZdAUEPEGKe_-79" style="rounded=0;orthogonalLoop=1;jettySize=auto;html=1;" parent="1" source="-q-yL08rwZdAUEPEGKe_-16" target="-q-yL08rwZdAUEPEGKe_-27" edge="1">
          <mxGeometry relative="1" as="geometry" />
        </mxCell>
        <mxCell id="-q-yL08rwZdAUEPEGKe_-80" style="rounded=0;orthogonalLoop=1;jettySize=auto;html=1;" parent="1" source="-q-yL08rwZdAUEPEGKe_-16" target="-q-yL08rwZdAUEPEGKe_-28" edge="1">
          <mxGeometry relative="1" as="geometry" />
        </mxCell>
        <mxCell id="-q-yL08rwZdAUEPEGKe_-81" style="rounded=0;orthogonalLoop=1;jettySize=auto;html=1;" parent="1" source="-q-yL08rwZdAUEPEGKe_-14" target="-q-yL08rwZdAUEPEGKe_-28" edge="1">
          <mxGeometry relative="1" as="geometry" />
        </mxCell>
        <mxCell id="-q-yL08rwZdAUEPEGKe_-83" value="$$x_{hidden} = ReLU(x_{input}^T W_{hidden} + b_{hidden})$$" style="text;html=1;align=center;verticalAlign=middle;resizable=0;points=[];autosize=1;strokeColor=none;fillColor=none;" parent="1" vertex="1">
          <mxGeometry x="340" y="60" width="360" height="30" as="geometry" />
        </mxCell>
        <mxCell id="-q-yL08rwZdAUEPEGKe_-84" value="$$x_{out} = softmax(x_{hidden}^T W_{out} + b_{out})$$" style="text;html=1;align=center;verticalAlign=middle;resizable=0;points=[];autosize=1;strokeColor=none;fillColor=none;" parent="1" vertex="1">
          <mxGeometry x="660" y="150" width="320" height="30" as="geometry" />
        </mxCell>
        <mxCell id="-q-yL08rwZdAUEPEGKe_-85" value="$$x_{input}$$" style="text;html=1;align=center;verticalAlign=middle;resizable=0;points=[];autosize=1;strokeColor=none;fillColor=none;" parent="1" vertex="1">
          <mxGeometry x="170" y="150" width="100" height="30" as="geometry" />
        </mxCell>
        <mxCell id="-q-yL08rwZdAUEPEGKe_-86" value="$$b_{hidden} \in \mathbf{R}^6$$" style="text;html=1;align=center;verticalAlign=middle;resizable=0;points=[];autosize=1;strokeColor=none;fillColor=none;" parent="1" vertex="1">
          <mxGeometry x="420" y="40" width="200" height="30" as="geometry" />
        </mxCell>
        <mxCell id="-q-yL08rwZdAUEPEGKe_-87" value="$$b_{out} \in \mathbf{R}^4$$" style="text;html=1;align=center;verticalAlign=middle;resizable=0;points=[];autosize=1;strokeColor=none;fillColor=none;" parent="1" vertex="1">
          <mxGeometry x="730" y="130" width="180" height="30" as="geometry" />
        </mxCell>
      </root>
    </mxGraphModel>
  </diagram>
</mxfile>
